STARTFONT 2.1
COMMENT  
COMMENT  (c) Copyright 1994 by Star Division GmbH
COMMENT  
COMMENT  WARNING:  This bdf file was generated from a font server using
COMMENT  fstobdf.  The resulting font is subject to the same copyright,
COMMENT  license, and trademark restrictions as the original font.  The
COMMENT  authors and distributors of fstobdf disclaim all liability for
COMMENT  misuse of the program or its output.
COMMENT  
FONT -Star Division-starmath-medium-r-normal--12-120-75-75-p-0-iso8859-1
SIZE 12 75 75
FONTBOUNDINGBOX 22 15 -2 -5
STARTPROPERTIES 54
FONT "-Star Division-starmath-medium-r-normal--12-120-75-75-p-0-iso8859-1"
FONT_TYPE "TrueType"
TECHNOLOGY "TrueType"
FOUNDRY ""
FAMILY_NAME "starmath"
WEIGHT_NAME "medium"
SLANT "r"
SETWIDTH_NAME "normal"
ADD_STYLE_NAME ""
PIXEL_SIZE 12
POINT_SIZE 120
RESOLUTION_X 75
RESOLUTION_Y 75
SPACING "p"
AVERAGE_WIDTH 70
CHARSET_REGISTRY "iso8859"
CHARSET_ENCODING "1"
AVG_LOWERCASE_WIDTH 6
RAW_AVG_LOWERCASE_WIDTH 500
SUBSCRIPT_X 0
SUBSCRIPT_Y 5
SUBSCRIPT_SIZE 6
RAW_SUBSCRIPT_X 0
RAW_SUBSCRIPT_Y 499
RAW_SUBSCRIPT_SIZE 500
SUPERSCRIPT_X 0
SUPERSCRIPT_Y 3
SUPERSCRIPT_SIZE 6
RAW_SUPERSCRIPT_X 0
RAW_SUPERSCRIPT_Y 250
RAW_SUPERSCRIPT_SIZE 500
STRIKEOUT_ASCENT 4
STRIKEOUT_DESCENT -2
RAW_STRIKEOUT_ASCENT 299
RAW_STRIKEOUT_DESCENT -249
RELATIVE_SETWIDTH 50
RELATIVE_WEIGHT 40
_GALLIUM_PANOSE "5 11 5 0 0 0 0 0 0 0"
UNDERLINE_POSITION 0
UNDERLINE_THICKNESS 1
RAW_UNDERLINE_POSITION 99
RAW_UNDERLINE_THICKNESS 50
ITALIC_ANGLE 0
RAW_PIXEL_SIZE 1000
RAW_POINT_SIZE 9636
FONT_ASCENT 11
FONT_DESCENT 4
RAW_ASCENT 863
RAW_DESCENT 325
RAW_AVERAGE_WIDTH 6260
COPYRIGHT "(c) Copyright 1994 by Star Division GmbH"
FACE_NAME "StarMath"
NOTICE "Created by Type-Designer 2.5"
DEFAULT_CHAR 0
ENDPROPERTIES
CHARS 223
STARTCHAR exclam
ENCODING 33
SWIDTH 240 0
DWIDTH 3 0
BBX 1 9 1 0
ATTRIBUTES 0115
BITMAP
80
80
80
80
80
80
80
00
80
ENDCHAR
STARTCHAR quotedbl
ENCODING 34
SWIDTH 320 0
DWIDTH 4 0
BBX 3 3 1 6
ATTRIBUTES 0162
BITMAP
a0
a0
a0
ENDCHAR
STARTCHAR numbersign
ENCODING 35
SWIDTH 560 0
DWIDTH 7 0
BBX 6 9 0 0
ATTRIBUTES 022b
BITMAP
24
24
28
fc
48
48
fc
50
50
ENDCHAR
STARTCHAR dollar
ENCODING 36
SWIDTH 960 0
DWIDTH 12 0
BBX 12 8 0 0
ATTRIBUTES 03c0
BITMAP
e400
a400
a800
e800
1660
1990
2990
2760
ENDCHAR
STARTCHAR percent
ENCODING 37
SWIDTH 800 0
DWIDTH 10 0
BBX 9 8 0 0
ATTRIBUTES 0340
BITMAP
e200
a200
a400
e400
0b00
1280
1280
2380
ENDCHAR
STARTCHAR ampersand
ENCODING 38
SWIDTH 800 0
DWIDTH 10 0
BBX 9 8 0 0
ATTRIBUTES 0309
BITMAP
1c00
2400
2800
3300
5200
8c00
8c80
7300
ENDCHAR
STARTCHAR apostrophe
ENCODING 39
SWIDTH 720 0
DWIDTH 9 0
BBX 8 5 0 0
ATTRIBUTES 02c8
BITMAP
7e
89
91
fb
0e
ENDCHAR
STARTCHAR parenleft
ENCODING 40
SWIDTH 320 0
DWIDTH 4 0
BBX 3 13 1 -3
ATTRIBUTES 0153
BITMAP
40
40
40
80
80
80
80
80
80
40
40
20
20
ENDCHAR
STARTCHAR parenright
ENCODING 41
SWIDTH 320 0
DWIDTH 4 0
BBX 3 13 0 -3
ATTRIBUTES 0153
BITMAP
40
40
20
20
20
20
20
20
20
20
40
40
80
ENDCHAR
STARTCHAR asterisk
ENCODING 42
SWIDTH 400 0
DWIDTH 5 0
BBX 4 4 0 5
ATTRIBUTES 0185
BITMAP
20
b0
60
50
ENDCHAR
STARTCHAR plus
ENCODING 43
SWIDTH 560 0
DWIDTH 7 0
BBX 5 5 1 2
ATTRIBUTES 0247
BITMAP
20
20
f8
20
20
ENDCHAR
STARTCHAR comma
ENCODING 44
SWIDTH 240 0
DWIDTH 3 0
BBX 1 3 1 -2
ATTRIBUTES 0115
BITMAP
80
80
80
ENDCHAR
STARTCHAR minus
ENCODING 45
SWIDTH 320 0
DWIDTH 4 0
BBX 3 1 1 3
ATTRIBUTES 014c
BITMAP
e0
ENDCHAR
STARTCHAR period
ENCODING 46
SWIDTH 240 0
DWIDTH 3 0
BBX 1 1 1 0
ATTRIBUTES 0115
BITMAP
80
ENDCHAR
STARTCHAR slash
ENCODING 47
SWIDTH 240 0
DWIDTH 3 0
BBX 3 9 0 0
ATTRIBUTES 0115
BITMAP
20
20
20
40
40
40
40
80
80
ENDCHAR
STARTCHAR 0
ENCODING 48
SWIDTH 560 0
DWIDTH 7 0
BBX 5 9 1 0
ATTRIBUTES 022b
BITMAP
70
d0
88
88
88
88
88
50
70
ENDCHAR
STARTCHAR 1
ENCODING 49
SWIDTH 560 0
DWIDTH 7 0
BBX 3 9 1 0
ATTRIBUTES 022b
BITMAP
20
60
e0
a0
20
20
20
20
20
ENDCHAR
STARTCHAR 2
ENCODING 50
SWIDTH 560 0
DWIDTH 7 0
BBX 6 9 0 0
ATTRIBUTES 022b
BITMAP
38
44
44
04
08
10
20
40
7c
ENDCHAR
STARTCHAR 3
ENCODING 51
SWIDTH 560 0
DWIDTH 7 0
BBX 6 9 0 0
ATTRIBUTES 022b
BITMAP
30
48
08
08
18
0c
4c
48
38
ENDCHAR
STARTCHAR 4
ENCODING 52
SWIDTH 560 0
DWIDTH 7 0
BBX 6 9 0 0
ATTRIBUTES 022b
BITMAP
08
18
18
28
48
48
fc
08
08
ENDCHAR
STARTCHAR 5
ENCODING 53
SWIDTH 560 0
DWIDTH 7 0
BBX 6 8 0 0
ATTRIBUTES 022b
BITMAP
7c
40
78
4c
04
04
48
38
ENDCHAR
STARTCHAR 6
ENCODING 54
SWIDTH 560 0
DWIDTH 7 0
BBX 5 9 1 0
ATTRIBUTES 022b
BITMAP
70
48
80
b0
c8
88
88
58
70
ENDCHAR
STARTCHAR 7
ENCODING 55
SWIDTH 560 0
DWIDTH 7 0
BBX 6 8 0 0
ATTRIBUTES 022b
BITMAP
fc
08
18
10
20
20
20
20
ENDCHAR
STARTCHAR 8
ENCODING 56
SWIDTH 560 0
DWIDTH 7 0
BBX 5 9 1 0
ATTRIBUTES 022b
BITMAP
70
88
88
88
70
88
88
88
70
ENDCHAR
STARTCHAR 9
ENCODING 57
SWIDTH 560 0
DWIDTH 7 0
BBX 5 9 1 0
ATTRIBUTES 022b
BITMAP
70
d0
88
88
c8
78
08
90
70
ENDCHAR
STARTCHAR colon
ENCODING 58
SWIDTH 240 0
DWIDTH 3 0
BBX 1 6 1 0
ATTRIBUTES 0115
BITMAP
80
00
00
00
00
80
ENDCHAR
STARTCHAR semicolon
ENCODING 59
SWIDTH 240 0
DWIDTH 3 0
BBX 1 8 1 -2
ATTRIBUTES 0115
BITMAP
80
00
00
00
00
80
80
80
ENDCHAR
STARTCHAR less
ENCODING 60
SWIDTH 560 0
DWIDTH 7 0
BBX 6 6 1 1
ATTRIBUTES 0247
BITMAP
0c
30
c0
60
1c
04
ENDCHAR
STARTCHAR equal
ENCODING 61
SWIDTH 800 0
DWIDTH 10 0
BBX 7 3 1 2
ATTRIBUTES 031a
BITMAP
fe
00
fe
ENDCHAR
STARTCHAR greater
ENCODING 62
SWIDTH 560 0
DWIDTH 7 0
BBX 6 6 1 1
ATTRIBUTES 0247
BITMAP
c0
30
0c
18
e0
80
ENDCHAR
STARTCHAR question
ENCODING 63
SWIDTH 560 0
DWIDTH 7 0
BBX 5 9 1 0
ATTRIBUTES 022b
BITMAP
20
00
20
20
40
80
88
88
70
ENDCHAR
STARTCHAR at
ENCODING 64
SWIDTH 800 0
DWIDTH 10 0
BBX 7 7 1 0
ATTRIBUTES 031a
BITMAP
08
08
fe
10
fe
20
40
ENDCHAR
STARTCHAR A
ENCODING 65
SWIDTH 800 0
DWIDTH 10 0
BBX 7 7 1 0
ATTRIBUTES 031a
BITMAP
10
10
10
fe
10
10
10
ENDCHAR
STARTCHAR B
ENCODING 66
SWIDTH 800 0
DWIDTH 10 0
BBX 7 1 1 3
ATTRIBUTES 031a
BITMAP
fe
ENDCHAR
STARTCHAR C
ENCODING 67
SWIDTH 720 0
DWIDTH 9 0
BBX 5 5 2 1
ATTRIBUTES 02d3
BITMAP
20
f8
20
f8
20
ENDCHAR
STARTCHAR D
ENCODING 68
SWIDTH 800 0
DWIDTH 10 0
BBX 7 7 1 0
ATTRIBUTES 031a
BITMAP
82
44
28
10
28
44
82
ENDCHAR
STARTCHAR E
ENCODING 69
SWIDTH 560 0
DWIDTH 7 0
BBX 1 1 3 3
ATTRIBUTES 0242
BITMAP
80
ENDCHAR
STARTCHAR F
ENCODING 70
SWIDTH 800 0
DWIDTH 10 0
BBX 7 5 1 1
ATTRIBUTES 031a
BITMAP
10
00
fe
00
10
ENDCHAR
STARTCHAR G
ENCODING 71
SWIDTH 800 0
DWIDTH 10 0
BBX 7 7 1 0
ATTRIBUTES 031a
BITMAP
10
10
fe
10
10
00
fe
ENDCHAR
STARTCHAR H
ENCODING 72
SWIDTH 800 0
DWIDTH 10 0
BBX 7 7 1 0
ATTRIBUTES 031a
BITMAP
fe
00
10
10
fe
10
10
ENDCHAR
STARTCHAR I
ENCODING 73
SWIDTH 800 0
DWIDTH 10 0
BBX 7 7 1 0
ATTRIBUTES 031a
BITMAP
78
96
92
fe
92
56
78
ENDCHAR
STARTCHAR J
ENCODING 74
SWIDTH 800 0
DWIDTH 10 0
BBX 7 7 1 0
ATTRIBUTES 031a
BITMAP
38
44
82
fe
82
44
38
ENDCHAR
STARTCHAR K
ENCODING 75
SWIDTH 800 0
DWIDTH 10 0
BBX 7 7 1 0
ATTRIBUTES 031a
BITMAP
38
44
aa
92
aa
44
38
ENDCHAR
STARTCHAR L
ENCODING 76
SWIDTH 800 0
DWIDTH 10 0
BBX 7 7 1 0
ATTRIBUTES 031a
BITMAP
38
6c
ca
92
a2
64
38
ENDCHAR
STARTCHAR M
ENCODING 77
SWIDTH 800 0
DWIDTH 10 0
BBX 7 7 1 0
ATTRIBUTES 031a
BITMAP
38
44
82
92
82
44
38
ENDCHAR
STARTCHAR N
ENCODING 78
SWIDTH 800 0
DWIDTH 10 0
BBX 7 7 1 0
ATTRIBUTES 031a
BITMAP
82
82
82
82
82
44
38
ENDCHAR
STARTCHAR O
ENCODING 79
SWIDTH 800 0
DWIDTH 10 0
BBX 7 7 1 0
ATTRIBUTES 031a
BITMAP
38
44
82
82
82
82
82
ENDCHAR
STARTCHAR P
ENCODING 80
SWIDTH 800 0
DWIDTH 10 0
BBX 7 6 1 1
ATTRIBUTES 031a
BITMAP
06
38
40
20
1c
02
ENDCHAR
STARTCHAR Q
ENCODING 81
SWIDTH 800 0
DWIDTH 10 0
BBX 7 6 1 1
ATTRIBUTES 031a
BITMAP
80
70
0c
18
e0
80
ENDCHAR
STARTCHAR R
ENCODING 82
SWIDTH 800 0
DWIDTH 10 0
BBX 7 7 1 0
ATTRIBUTES 031a
BITMAP
06
38
40
20
1c
02
fe
ENDCHAR
STARTCHAR S
ENCODING 83
SWIDTH 800 0
DWIDTH 10 0
BBX 7 7 1 0
ATTRIBUTES 031a
BITMAP
80
70
0c
18
e0
80
fe
ENDCHAR
STARTCHAR T
ENCODING 84
SWIDTH 800 0
DWIDTH 10 0
BBX 7 7 1 0
ATTRIBUTES 031a
BITMAP
0c
30
c0
30
4e
38
06
ENDCHAR
STARTCHAR U
ENCODING 85
SWIDTH 800 0
DWIDTH 10 0
BBX 7 7 1 0
ATTRIBUTES 031a
BITMAP
40
38
0e
30
cc
70
80
ENDCHAR
STARTCHAR V
ENCODING 86
SWIDTH 1120 0
DWIDTH 14 0
BBX 11 7 1 0
ATTRIBUTES 045d
BITMAP
0660
1980
6200
8c00
6200
1980
0660
ENDCHAR
STARTCHAR W
ENCODING 87
SWIDTH 1120 0
DWIDTH 14 0
BBX 11 7 1 0
ATTRIBUTES 045d
BITMAP
8800
6600
1980
0660
1980
6600
8800
ENDCHAR
STARTCHAR X
ENCODING 88
SWIDTH 800 0
DWIDTH 10 0
BBX 7 3 1 3
ATTRIBUTES 031a
BITMAP
0c
ba
60
ENDCHAR
STARTCHAR Y
ENCODING 89
SWIDTH 800 0
DWIDTH 10 0
BBX 7 5 1 1
ATTRIBUTES 031a
BITMAP
0c
ba
60
00
fe
ENDCHAR
STARTCHAR Z
ENCODING 90
SWIDTH 800 0
DWIDTH 10 0
BBX 7 4 1 2
ATTRIBUTES 031a
BITMAP
0c
b2
cc
72
ENDCHAR
STARTCHAR bracketleft
ENCODING 91
SWIDTH 800 0
DWIDTH 10 0
BBX 8 8 1 0
ATTRIBUTES 031a
BITMAP
21
7a
ba
f2
00
fe
00
fe
ENDCHAR
STARTCHAR backslash
ENCODING 92
SWIDTH 800 0
DWIDTH 10 0
BBX 7 5 1 1
ATTRIBUTES 031a
BITMAP
fe
00
fe
00
fe
ENDCHAR
STARTCHAR bracketright
ENCODING 93
SWIDTH 720 0
DWIDTH 9 0
BBX 7 5 0 1
ATTRIBUTES 02c8
BITMAP
06
78
90
98
6e
ENDCHAR
STARTCHAR asciicircum
ENCODING 94
SWIDTH 480 0
DWIDTH 6 0
BBX 6 9 0 -1
ATTRIBUTES 01ee
BITMAP
30
48
34
4c
44
8c
88
98
70
ENDCHAR
STARTCHAR underscore
ENCODING 95
SWIDTH 800 0
DWIDTH 10 0
BBX 7 7 1 0
ATTRIBUTES 031a
BITMAP
3e
40
80
80
80
40
3e
ENDCHAR
STARTCHAR grave
ENCODING 96
SWIDTH 800 0
DWIDTH 10 0
BBX 7 7 1 0
ATTRIBUTES 031a
BITMAP
f8
04
02
02
02
0c
f8
ENDCHAR
STARTCHAR a
ENCODING 97
SWIDTH 800 0
DWIDTH 10 0
BBX 7 7 1 0
ATTRIBUTES 031a
BITMAP
7e
40
80
80
7e
00
fe
ENDCHAR
STARTCHAR b
ENCODING 98
SWIDTH 800 0
DWIDTH 10 0
BBX 7 7 1 0
ATTRIBUTES 031a
BITMAP
f8
04
02
04
f8
00
fe
ENDCHAR
STARTCHAR c
ENCODING 99
SWIDTH 800 0
DWIDTH 10 0
BBX 7 9 1 -1
ATTRIBUTES 031a
BITMAP
04
3e
68
c8
90
90
50
7e
40
ENDCHAR
STARTCHAR d
ENCODING 100
SWIDTH 800 0
DWIDTH 10 0
BBX 7 9 1 -1
ATTRIBUTES 031a
BITMAP
04
f8
14
12
22
22
44
f8
40
ENDCHAR
STARTCHAR e
ENCODING 101
SWIDTH 800 0
DWIDTH 10 0
BBX 7 9 1 -1
ATTRIBUTES 031a
BITMAP
02
3e
48
88
d0
7e
20
fe
40
ENDCHAR
STARTCHAR f
ENCODING 102
SWIDTH 800 0
DWIDTH 10 0
BBX 7 9 1 -1
ATTRIBUTES 031a
BITMAP
04
fc
0a
12
14
f8
20
fe
40
ENDCHAR
STARTCHAR g
ENCODING 103
SWIDTH 720 0
DWIDTH 9 0
BBX 7 7 0 0
ATTRIBUTES 02c8
BITMAP
3e
40
80
fe
80
40
3e
ENDCHAR
STARTCHAR h
ENCODING 104
SWIDTH 720 0
DWIDTH 9 0
BBX 7 9 0 -1
ATTRIBUTES 02c8
BITMAP
04
3e
48
98
fe
a0
60
7e
40
ENDCHAR
STARTCHAR i
ENCODING 105
SWIDTH 720 0
DWIDTH 9 0
BBX 7 7 0 0
ATTRIBUTES 02c8
BITMAP
3e
40
80
fe
80
40
3e
ENDCHAR
STARTCHAR j
ENCODING 106
SWIDTH 560 0
DWIDTH 7 0
BBX 6 8 -1 0
ATTRIBUTES 0224
BITMAP
fc
04
04
7c
04
04
04
fc
ENDCHAR
STARTCHAR k
ENCODING 107
SWIDTH 400 0
DWIDTH 5 0
BBX 5 6 0 0
ATTRIBUTES 01b6
BITMAP
f0
18
18
78
10
e0
ENDCHAR
STARTCHAR l
ENCODING 108
SWIDTH 800 0
DWIDTH 10 0
BBX 7 8 0 0
ATTRIBUTES 0336
BITMAP
84
84
46
b4
98
8c
46
42
ENDCHAR
STARTCHAR m
ENCODING 109
SWIDTH 720 0
DWIDTH 9 0
BBX 8 9 -1 -1
ATTRIBUTES 02ae
BITMAP
3d
42
41
02
02
01
01
f1
1e
ENDCHAR
STARTCHAR n
ENCODING 110
SWIDTH 800 0
DWIDTH 10 0
BBX 8 8 0 0
ATTRIBUTES 031a
BITMAP
7f
91
91
5e
52
12
12
e3
ENDCHAR
STARTCHAR o
ENCODING 111
SWIDTH 960 0
DWIDTH 12 0
BBX 8 9 0 -3
ATTRIBUTES 03da
BITMAP
20
2f
51
61
4a
7c
a0
a0
40
ENDCHAR
STARTCHAR p
ENCODING 112
SWIDTH 480 0
DWIDTH 6 0
BBX 6 11 0 -3
ATTRIBUTES 01f4
BITMAP
0c
10
38
10
10
20
20
20
20
c0
80
ENDCHAR
STARTCHAR q
ENCODING 113
SWIDTH 800 0
DWIDTH 10 0
BBX 7 9 1 -2
ATTRIBUTES 031a
BITMAP
02
04
28
10
28
28
7e
08
08
ENDCHAR
STARTCHAR r
ENCODING 114
SWIDTH 800 0
DWIDTH 10 0
BBX 7 7 1 0
ATTRIBUTES 031a
BITMAP
08
0e
3c
c4
34
0e
08
ENDCHAR
STARTCHAR s
ENCODING 115
SWIDTH 400 0
DWIDTH 5 0
BBX 1 11 2 -2
ATTRIBUTES 018d
BITMAP
80
80
80
80
80
80
80
80
80
80
80
ENDCHAR
STARTCHAR t
ENCODING 116
SWIDTH 560 0
DWIDTH 7 0
BBX 3 11 2 -2
ATTRIBUTES 0242
BITMAP
a0
a0
a0
a0
a0
a0
a0
a0
a0
a0
a0
ENDCHAR
STARTCHAR u
ENCODING 117
SWIDTH 640 0
DWIDTH 8 0
BBX 7 8 0 0
ATTRIBUTES 0292
BITMAP
10
10
10
10
10
10
10
fe
ENDCHAR
STARTCHAR v
ENCODING 118
SWIDTH 960 0
DWIDTH 12 0
BBX 9 1 0 0
ATTRIBUTES 03e8
BITMAP
8880
ENDCHAR
STARTCHAR w
ENCODING 119
SWIDTH 960 0
DWIDTH 12 0
BBX 9 1 0 3
ATTRIBUTES 03e8
BITMAP
8880
ENDCHAR
STARTCHAR x
ENCODING 120
SWIDTH 960 0
DWIDTH 12 0
BBX 1 9 4 -1
ATTRIBUTES 03e8
BITMAP
80
00
00
00
80
00
00
00
80
ENDCHAR
STARTCHAR y
ENCODING 121
SWIDTH 960 0
DWIDTH 12 0
BBX 7 7 1 0
ATTRIBUTES 03e8
BITMAP
02
00
00
10
00
80
80
ENDCHAR
STARTCHAR z
ENCODING 122
SWIDTH 960 0
DWIDTH 12 0
BBX 7 7 1 0
ATTRIBUTES 03e8
BITMAP
80
00
00
10
00
00
02
ENDCHAR
STARTCHAR braceleft
ENCODING 123
SWIDTH 880 0
DWIDTH 11 0
BBX 8 3 1 2
ATTRIBUTES 0388
BITMAP
c3
bf
c3
ENDCHAR
STARTCHAR bar
ENCODING 124
SWIDTH 880 0
DWIDTH 11 0
BBX 8 3 1 2
ATTRIBUTES 0388
BITMAP
c3
fd
c3
ENDCHAR
STARTCHAR braceright
ENCODING 125
SWIDTH 720 0
DWIDTH 9 0
BBX 8 3 0 2
ATTRIBUTES 02bb
BITMAP
01
ff
01
ENDCHAR
STARTCHAR asciitilde
ENCODING 126
SWIDTH 480 0
DWIDTH 6 0
BBX 6 6 0 0
ATTRIBUTES 01f5
BITMAP
fc
84
84
84
84
fc
ENDCHAR
STARTCHAR C000177
ENCODING 127
SWIDTH 480 0
DWIDTH 6 0
BBX 6 6 0 0
ATTRIBUTES 01f5
BITMAP
fc
84
84
84
84
fc
ENDCHAR
STARTCHAR C000200
ENCODING 128
SWIDTH 560 0
DWIDTH 7 0
BBX 5 12 1 -2
ATTRIBUTES 0242
BITMAP
10
28
20
20
20
20
20
20
20
20
20
c0
ENDCHAR
STARTCHAR C000201
ENCODING 129
SWIDTH 880 0
DWIDTH 11 0
BBX 8 12 1 -2
ATTRIBUTES 0356
BITMAP
13
2c
24
24
24
24
24
24
24
24
24
c8
ENDCHAR
STARTCHAR C000202
ENCODING 130
SWIDTH 1120 0
DWIDTH 14 0
BBX 11 12 1 -2
ATTRIBUTES 046c
BITMAP
1320
2c60
2440
2440
2440
2440
2440
2440
2440
2440
2480
c900
ENDCHAR
STARTCHAR C000203
ENCODING 131
SWIDTH 640 0
DWIDTH 8 0
BBX 5 12 1 -2
ATTRIBUTES 0265
BITMAP
10
28
20
70
70
a8
a8
70
70
20
20
40
ENDCHAR
STARTCHAR C000204
ENCODING 132
SWIDTH 880 0
DWIDTH 11 0
BBX 9 12 1 -2
ATTRIBUTES 037b
BITMAP
1900
2b00
2200
3e00
6300
a280
a280
6300
3e00
2200
2400
4800
ENDCHAR
STARTCHAR C000205
ENCODING 133
SWIDTH 1200 0
DWIDTH 15 0
BBX 12 12 1 -2
ATTRIBUTES 048f
BITMAP
1920
2b60
2240
3fc0
6260
a250
a250
6260
3fc0
2240
2440
4980
ENDCHAR
STARTCHAR C000206
ENCODING 134
SWIDTH 560 0
DWIDTH 7 0
BBX 6 10 0 0
ATTRIBUTES 0215
BITMAP
04
04
04
08
08
08
c8
30
30
10
ENDCHAR
STARTCHAR C000207
ENCODING 135
SWIDTH 560 0
DWIDTH 7 0
BBX 6 10 0 0
ATTRIBUTES 0215
BITMAP
04
04
04
04
08
08
48
28
28
10
ENDCHAR
STARTCHAR C000210
ENCODING 136
SWIDTH 480 0
DWIDTH 6 0
BBX 6 10 0 0
ATTRIBUTES 0202
BITMAP
04
04
04
48
48
48
28
30
30
10
ENDCHAR
STARTCHAR C000211
ENCODING 137
SWIDTH 400 0
DWIDTH 5 0
BBX 4 10 0 0
ATTRIBUTES 0196
BITMAP
10
10
10
10
10
10
50
30
30
10
ENDCHAR
STARTCHAR C000212
ENCODING 138
SWIDTH 800 0
DWIDTH 10 0
BBX 9 10 0 -1
ATTRIBUTES 0336
BITMAP
e380
4100
4100
4100
4100
4100
4100
4100
4100
7f00
ENDCHAR
STARTCHAR C000213
ENCODING 139
SWIDTH 800 0
DWIDTH 10 0
BBX 9 11 0 -2
ATTRIBUTES 0336
BITMAP
7f00
4100
4100
4100
4100
4100
4100
4100
4100
4100
e380
ENDCHAR
STARTCHAR C000214
ENCODING 140
SWIDTH 720 0
DWIDTH 9 0
BBX 8 10 0 -1
ATTRIBUTES 02c8
BITMAP
ff
41
20
10
08
10
20
20
41
ff
ENDCHAR
STARTCHAR C000215
ENCODING 141
SWIDTH 800 0
DWIDTH 10 0
BBX 10 11 0 -1
ATTRIBUTES 0334
BITMAP
ffc0
4080
6080
2080
2100
3100
1200
1a00
0c00
0800
0800
ENDCHAR
STARTCHAR C000216
ENCODING 142
SWIDTH 800 0
DWIDTH 10 0
BBX 11 11 -1 -1
ATTRIBUTES 0340
BITMAP
8020
4040
4040
7fc0
3080
3080
1900
1900
0a00
0e00
0400
ENDCHAR
STARTCHAR C000217
ENCODING 143
SWIDTH 1680 0
DWIDTH 21 0
BBX 20 10 0 0
ATTRIBUTES 06a3
BITMAP
620000
200000
200000
222ce0
223320
222220
222220
222220
222220
222220
ENDCHAR
STARTCHAR C000220
ENCODING 144
SWIDTH 320 0
DWIDTH 4 0
BBX 3 2 0 7
ATTRIBUTES 014c
BITMAP
40
a0
ENDCHAR
STARTCHAR C000221
ENCODING 145
SWIDTH 320 0
DWIDTH 4 0
BBX 3 2 0 7
ATTRIBUTES 014c
BITMAP
a0
e0
ENDCHAR
STARTCHAR C000222
ENCODING 146
SWIDTH 320 0
DWIDTH 4 0
BBX 3 2 0 7
ATTRIBUTES 014c
BITMAP
a0
c0
ENDCHAR
STARTCHAR C000223
ENCODING 147
SWIDTH 320 0
DWIDTH 4 0
BBX 2 2 1 7
ATTRIBUTES 014c
BITMAP
40
80
ENDCHAR
STARTCHAR C000224
ENCODING 148
SWIDTH 320 0
DWIDTH 4 0
BBX 2 2 1 7
ATTRIBUTES 014c
BITMAP
00
80
ENDCHAR
STARTCHAR C000225
ENCODING 149
SWIDTH 320 0
DWIDTH 4 0
BBX 4 2 0 7
ATTRIBUTES 014c
BITMAP
40
d0
ENDCHAR
STARTCHAR C000226
ENCODING 150
SWIDTH 480 0
DWIDTH 6 0
BBX 6 1 0 8
ATTRIBUTES 01f4
BITMAP
b0
ENDCHAR
STARTCHAR C000227
ENCODING 151
SWIDTH 480 0
DWIDTH 6 0
BBX 6 2 0 7
ATTRIBUTES 01f4
BITMAP
fc
fc
ENDCHAR
STARTCHAR C000230
ENCODING 152
SWIDTH 240 0
DWIDTH 3 0
BBX 1 2 1 7
ATTRIBUTES 0108
BITMAP
00
80
ENDCHAR
STARTCHAR C000231
ENCODING 153
SWIDTH 240 0
DWIDTH 3 0
BBX 3 2 0 7
ATTRIBUTES 0108
BITMAP
80
a0
ENDCHAR
STARTCHAR C000232
ENCODING 154
SWIDTH 400 0
DWIDTH 5 0
BBX 5 2 0 7
ATTRIBUTES 01a3
BITMAP
80
a8
ENDCHAR
STARTCHAR C000233
ENCODING 155
SWIDTH 240 0
DWIDTH 3 0
BBX 3 3 0 6
ATTRIBUTES 0103
BITMAP
80
e0
a0
ENDCHAR
STARTCHAR C000234
ENCODING 156
SWIDTH 800 0
DWIDTH 10 0
BBX 7 7 1 0
ATTRIBUTES 031a
BITMAP
e0
10
18
18
24
24
42
ENDCHAR
STARTCHAR C000235
ENCODING 157
SWIDTH 800 0
DWIDTH 10 0
BBX 7 7 1 0
ATTRIBUTES 031a
BITMAP
42
42
42
24
24
18
18
ENDCHAR
STARTCHAR C000236
ENCODING 158
SWIDTH 480 0
DWIDTH 6 0
BBX 6 6 0 0
ATTRIBUTES 01f5
BITMAP
08
fc
84
84
84
84
ENDCHAR
STARTCHAR C000237
ENCODING 159
SWIDTH 480 0
DWIDTH 6 0
BBX 6 6 0 0
ATTRIBUTES 01f5
BITMAP
fc
fc
84
84
84
84
ENDCHAR
STARTCHAR nobreakspace
ENCODING 160
SWIDTH 400 0
DWIDTH 5 0
BBX 2 14 1 -3
ATTRIBUTES 017e
BITMAP
c0
40
80
80
80
40
40
80
40
40
40
80
80
80
ENDCHAR
STARTCHAR exclamdown
ENCODING 161
SWIDTH 400 0
DWIDTH 5 0
BBX 2 14 0 -3
ATTRIBUTES 017e
BITMAP
40
80
40
40
40
80
80
c0
80
80
80
40
40
40
ENDCHAR
STARTCHAR cent
ENCODING 162
SWIDTH 320 0
DWIDTH 4 0
BBX 3 12 1 -2
ATTRIBUTES 0137
BITMAP
80
20
40
40
80
80
80
80
80
80
40
20
ENDCHAR
STARTCHAR sterling
ENCODING 163
SWIDTH 320 0
DWIDTH 4 0
BBX 3 12 0 -2
ATTRIBUTES 0137
BITMAP
20
40
40
40
20
20
20
20
20
20
40
40
ENDCHAR
STARTCHAR currency
ENCODING 164
SWIDTH 320 0
DWIDTH 4 0
BBX 3 11 1 -1
ATTRIBUTES 014f
BITMAP
40
20
20
40
40
80
80
80
40
40
20
ENDCHAR
STARTCHAR yen
ENCODING 165
SWIDTH 320 0
DWIDTH 4 0
BBX 3 11 0 -1
ATTRIBUTES 014f
BITMAP
20
80
40
40
40
20
20
20
20
40
40
ENDCHAR
STARTCHAR brokenbar
ENCODING 166
SWIDTH 320 0
DWIDTH 4 0
BBX 3 12 1 -2
ATTRIBUTES 0119
BITMAP
80
e0
80
80
80
80
80
80
80
80
80
80
ENDCHAR
STARTCHAR section
ENCODING 167
SWIDTH 320 0
DWIDTH 4 0
BBX 2 12 1 -2
ATTRIBUTES 0119
BITMAP
c0
40
00
00
00
00
00
00
00
00
00
00
ENDCHAR
STARTCHAR diaeresis
ENCODING 168
SWIDTH 320 0
DWIDTH 4 0
BBX 2 5 2 0
ATTRIBUTES 0157
BITMAP
40
40
80
80
80
ENDCHAR
STARTCHAR copyright
ENCODING 169
SWIDTH 320 0
DWIDTH 4 0
BBX 2 10 1 0
ATTRIBUTES 0157
BITMAP
80
40
40
40
40
40
80
40
40
40
ENDCHAR
STARTCHAR ordfeminine
ENCODING 170
SWIDTH 320 0
DWIDTH 4 0
BBX 2 6 2 0
ATTRIBUTES 0157
BITMAP
40
80
80
80
80
80
ENDCHAR
STARTCHAR guillemotleft
ENCODING 171
SWIDTH 320 0
DWIDTH 4 0
BBX 2 5 1 0
ATTRIBUTES 0157
BITMAP
40
80
40
40
40
ENDCHAR
STARTCHAR notsign
ENCODING 172
SWIDTH 320 0
DWIDTH 4 0
BBX 2 10 2 0
ATTRIBUTES 0157
BITMAP
40
80
80
80
80
80
c0
80
80
80
ENDCHAR
STARTCHAR hyphen
ENCODING 173
SWIDTH 320 0
DWIDTH 4 0
BBX 2 6 1 0
ATTRIBUTES 0157
BITMAP
80
40
40
40
40
40
ENDCHAR
STARTCHAR registered
ENCODING 174
SWIDTH 320 0
DWIDTH 4 0
BBX 1 4 2 0
ATTRIBUTES 0157
BITMAP
80
80
80
80
ENDCHAR
STARTCHAR macron
ENCODING 175
SWIDTH 400 0
DWIDTH 5 0
BBX 3 10 1 0
ATTRIBUTES 018d
BITMAP
80
20
20
20
40
40
80
80
80
80
ENDCHAR
STARTCHAR degree
ENCODING 176
SWIDTH 400 0
DWIDTH 5 0
BBX 1 4 1 0
ATTRIBUTES 018d
BITMAP
80
80
80
80
ENDCHAR
STARTCHAR plusminus
ENCODING 177
SWIDTH 400 0
DWIDTH 5 0
BBX 3 10 1 0
ATTRIBUTES 018d
BITMAP
80
80
80
80
80
80
40
40
40
20
ENDCHAR
STARTCHAR twosuperior
ENCODING 178
SWIDTH 400 0
DWIDTH 5 0
BBX 3 10 0 0
ATTRIBUTES 018d
BITMAP
20
80
80
40
40
20
20
20
20
20
ENDCHAR
STARTCHAR threesuperior
ENCODING 179
SWIDTH 400 0
DWIDTH 5 0
BBX 1 4 2 0
ATTRIBUTES 018d
BITMAP
00
80
80
80
ENDCHAR
STARTCHAR acute
ENCODING 180
SWIDTH 400 0
DWIDTH 5 0
BBX 3 10 0 0
ATTRIBUTES 018d
BITMAP
80
20
20
20
20
20
40
40
40
80
ENDCHAR
STARTCHAR mu
ENCODING 181
SWIDTH 400 0
DWIDTH 5 0
BBX 3 10 1 0
ATTRIBUTES 0169
BITMAP
80
e0
80
80
80
80
80
80
80
80
ENDCHAR
STARTCHAR paragraph
ENCODING 182
SWIDTH 400 0
DWIDTH 5 0
BBX 1 4 1 0
ATTRIBUTES 0169
BITMAP
80
80
80
80
ENDCHAR
STARTCHAR periodcentered
ENCODING 183
SWIDTH 400 0
DWIDTH 5 0
BBX 3 11 1 0
ATTRIBUTES 0169
BITMAP
80
80
80
80
80
80
80
80
80
80
80
ENDCHAR
STARTCHAR cedilla
ENCODING 184
SWIDTH 400 0
DWIDTH 5 0
BBX 3 10 0 0
ATTRIBUTES 0169
BITMAP
e0
e0
20
20
20
20
20
20
20
20
ENDCHAR
STARTCHAR onesuperior
ENCODING 185
SWIDTH 400 0
DWIDTH 5 0
BBX 1 4 2 0
ATTRIBUTES 0169
BITMAP
00
80
80
80
ENDCHAR
STARTCHAR masculine
ENCODING 186
SWIDTH 400 0
DWIDTH 5 0
BBX 3 11 0 0
ATTRIBUTES 0169
BITMAP
80
20
20
20
20
20
20
20
20
20
20
ENDCHAR
STARTCHAR guillemotright
ENCODING 187
SWIDTH 480 0
DWIDTH 6 0
BBX 6 6 0 0
ATTRIBUTES 01f5
BITMAP
e0
fc
84
84
84
84
ENDCHAR
STARTCHAR onequarter
ENCODING 188
SWIDTH 400 0
DWIDTH 5 0
BBX 1 4 2 0
ATTRIBUTES 0169
BITMAP
80
80
80
80
ENDCHAR
STARTCHAR onehalf
ENCODING 189
SWIDTH 400 0
DWIDTH 5 0
BBX 4 12 1 -3
ATTRIBUTES 01b2
BITMAP
80
10
10
10
20
20
20
40
40
40
40
80
ENDCHAR
STARTCHAR threequarters
ENCODING 190
SWIDTH 400 0
DWIDTH 5 0
BBX 4 12 1 -3
ATTRIBUTES 01b2
BITMAP
80
80
80
80
40
40
40
20
20
20
10
10
ENDCHAR
STARTCHAR questiondown
ENCODING 191
SWIDTH 880 0
DWIDTH 11 0
BBX 9 9 1 0
ATTRIBUTES 037b
BITMAP
1080
0080
8080
8080
8080
8080
8080
8080
8000
ENDCHAR
STARTCHAR Agrave
ENCODING 192
SWIDTH 320 0
DWIDTH 4 0
BBX 3 13 1 -3
ATTRIBUTES 0119
BITMAP
80
e0
80
80
80
80
80
80
80
80
80
80
80
ENDCHAR
STARTCHAR Aacute
ENCODING 193
SWIDTH 320 0
DWIDTH 4 0
BBX 3 13 1 -2
ATTRIBUTES 0119
BITMAP
80
80
80
80
80
80
80
80
80
80
80
80
80
ENDCHAR
STARTCHAR Acircumflex
ENCODING 194
SWIDTH 320 0
DWIDTH 4 0
BBX 2 13 1 -3
ATTRIBUTES 0119
BITMAP
c0
40
00
00
00
00
00
00
00
00
00
00
00
ENDCHAR
STARTCHAR Atilde
ENCODING 195
SWIDTH 320 0
DWIDTH 4 0
BBX 2 13 1 -2
ATTRIBUTES 0119
BITMAP
00
00
00
00
00
00
00
00
00
00
00
00
00
ENDCHAR
STARTCHAR Adiaeresis
ENCODING 196
SWIDTH 480 0
DWIDTH 6 0
BBX 6 6 0 0
ATTRIBUTES 01f5
BITMAP
60
fc
84
84
84
84
ENDCHAR
STARTCHAR Aring
ENCODING 197
SWIDTH 400 0
DWIDTH 5 0
BBX 1 4 3 0
ATTRIBUTES 0196
BITMAP
80
80
80
80
ENDCHAR
STARTCHAR AE
ENCODING 198
SWIDTH 640 0
DWIDTH 8 0
BBX 8 9 0 0
ATTRIBUTES 027e
BITMAP
80
3f
11
30
30
20
20
20
60
ENDCHAR
STARTCHAR Ccedilla
ENCODING 199
SWIDTH 800 0
DWIDTH 10 0
BBX 8 9 0 0
ATTRIBUTES 0318
BITMAP
60
04
04
0a
12
22
22
41
81
ENDCHAR
STARTCHAR Egrave
ENCODING 200
SWIDTH 800 0
DWIDTH 10 0
BBX 8 9 1 0
ATTRIBUTES 0340
BITMAP
ff
1c
23
41
d5
bd
a7
82
44
ENDCHAR
STARTCHAR Eacute
ENCODING 201
SWIDTH 800 0
DWIDTH 10 0
BBX 9 9 0 0
ATTRIBUTES 0338
BITMAP
7800
0000
0000
0000
0000
0000
0000
0000
0080
ENDCHAR
STARTCHAR Ecircumflex
ENCODING 202
SWIDTH 720 0
DWIDTH 9 0
BBX 8 9 0 0
ATTRIBUTES 02cc
BITMAP
80
3f
21
00
21
3e
22
00
81
ENDCHAR
STARTCHAR Ediaeresis
ENCODING 203
SWIDTH 880 0
DWIDTH 11 0
BBX 10 9 0 0
ATTRIBUTES 0369
BITMAP
fe00
8000
8000
8000
0000
0000
0040
0040
00c0
ENDCHAR
STARTCHAR Igrave
ENCODING 204
SWIDTH 720 0
DWIDTH 9 0
BBX 9 9 0 0
ATTRIBUTES 02ce
BITMAP
0000
8000
8000
0000
0000
0000
0000
0000
0080
ENDCHAR
STARTCHAR Iacute
ENCODING 205
SWIDTH 720 0
DWIDTH 9 0
BBX 8 9 1 0
ATTRIBUTES 02bd
BITMAP
00
81
46
28
28
30
20
20
20
ENDCHAR
STARTCHAR Icircumflex
ENCODING 206
SWIDTH 720 0
DWIDTH 9 0
BBX 7 9 1 0
ATTRIBUTES 02ea
BITMAP
60
1c
18
3c
52
92
92
5c
30
ENDCHAR
STARTCHAR Idiaeresis
ENCODING 207
SWIDTH 800 0
DWIDTH 10 0
BBX 9 9 1 0
ATTRIBUTES 0322
BITMAP
3080
8000
0000
0000
0000
0000
0000
0000
0000
ENDCHAR
STARTCHAR ETH
ENCODING 208
SWIDTH 880 0
DWIDTH 11 0
BBX 9 9 1 0
ATTRIBUTES 0379
BITMAP
0000
0000
0000
8000
8000
8000
0000
0080
8080
ENDCHAR
STARTCHAR Ntilde
ENCODING 209
SWIDTH 800 0
DWIDTH 10 0
BBX 8 7 1 0
ATTRIBUTES 0343
BITMAP
00
10
7b
4a
8c
8c
9a
ENDCHAR
STARTCHAR Ograve
ENCODING 210
SWIDTH 640 0
DWIDTH 8 0
BBX 6 12 1 -2
ATTRIBUTES 02a5
BITMAP
60
1c
24
24
68
48
5c
44
c4
c8
f0
80
ENDCHAR
STARTCHAR Oacute
ENCODING 211
SWIDTH 720 0
DWIDTH 9 0
BBX 7 9 1 -3
ATTRIBUTES 02b2
BITMAP
80
c2
64
28
30
20
20
60
a0
ENDCHAR
STARTCHAR Ocircumflex
ENCODING 212
SWIDTH 640 0
DWIDTH 8 0
BBX 7 10 1 0
ATTRIBUTES 0290
BITMAP
40
1e
20
10
18
38
44
84
8c
88
ENDCHAR
STARTCHAR Otilde
ENCODING 213
SWIDTH 560 0
DWIDTH 7 0
BBX 5 7 1 0
ATTRIBUTES 021e
BITMAP
70
38
40
80
f0
80
80
ENDCHAR
STARTCHAR Odiaeresis
ENCODING 214
SWIDTH 720 0
DWIDTH 9 0
BBX 7 12 1 -3
ATTRIBUTES 02ae
BITMAP
70
8e
78
20
20
40
80
80
80
78
04
0c
ENDCHAR
STARTCHAR multiply
ENCODING 215
SWIDTH 720 0
DWIDTH 9 0
BBX 6 9 1 -2
ATTRIBUTES 02ac
BITMAP
30
dc
64
44
44
cc
88
88
08
ENDCHAR
STARTCHAR Ooblique
ENCODING 216
SWIDTH 720 0
DWIDTH 9 0
BBX 6 10 1 0
ATTRIBUTES 02d0
BITMAP
08
18
24
44
44
c4
fc
8c
88
90
ENDCHAR
STARTCHAR Ugrave
ENCODING 217
SWIDTH 400 0
DWIDTH 5 0
BBX 3 6 1 0
ATTRIBUTES 0191
BITMAP
60
40
c0
c0
80
80
ENDCHAR
STARTCHAR Uacute
ENCODING 218
SWIDTH 640 0
DWIDTH 8 0
BBX 7 6 1 0
ATTRIBUTES 028e
BITMAP
e0
46
48
50
70
c8
ENDCHAR
STARTCHAR Ucircumflex
ENCODING 219
SWIDTH 720 0
DWIDTH 9 0
BBX 6 9 1 0
ATTRIBUTES 02b2
BITMAP
8c
60
10
10
10
38
48
48
48
ENDCHAR
STARTCHAR Udiaeresis
ENCODING 220
SWIDTH 720 0
DWIDTH 9 0
BBX 7 8 0 -2
ATTRIBUTES 02b4
BITMAP
84
22
66
44
44
4c
74
c0
ENDCHAR
STARTCHAR Yacute
ENCODING 221
SWIDTH 720 0
DWIDTH 9 0
BBX 7 6 0 0
ATTRIBUTES 02b2
BITMAP
80
62
22
24
38
18
ENDCHAR
STARTCHAR THORN
ENCODING 222
SWIDTH 640 0
DWIDTH 8 0
BBX 6 13 1 -3
ATTRIBUTES 027f
BITMAP
10
80
f8
20
40
60
38
40
80
80
78
08
08
ENDCHAR
STARTCHAR ssharp
ENCODING 223
SWIDTH 640 0
DWIDTH 8 0
BBX 6 7 1 0
ATTRIBUTES 0289
BITMAP
70
38
64
c4
84
8c
98
ENDCHAR
STARTCHAR agrave
ENCODING 224
SWIDTH 880 0
DWIDTH 11 0
BBX 8 6 1 0
ATTRIBUTES 0354
BITMAP
70
ff
26
64
44
44
ENDCHAR
STARTCHAR aacute
ENCODING 225
SWIDTH 640 0
DWIDTH 8 0
BBX 7 9 0 -2
ATTRIBUTES 0294
BITMAP
46
1e
32
22
22
44
4c
78
40
ENDCHAR
STARTCHAR acircumflex
ENCODING 226
SWIDTH 800 0
DWIDTH 10 0
BBX 8 7 1 0
ATTRIBUTES 0306
BITMAP
40
30
4f
44
84
8c
88
ENDCHAR
STARTCHAR atilde
ENCODING 227
SWIDTH 640 0
DWIDTH 8 0
BBX 6 6 1 0
ATTRIBUTES 02a3
BITMAP
70
fc
30
20
20
20
ENDCHAR
STARTCHAR adiaeresis
ENCODING 228
SWIDTH 640 0
DWIDTH 8 0
BBX 6 7 1 0
ATTRIBUTES 0292
BITMAP
30
4c
84
84
84
88
98
ENDCHAR
STARTCHAR aring
ENCODING 229
SWIDTH 880 0
DWIDTH 11 0
BBX 9 11 1 -2
ATTRIBUTES 036c
BITMAP
6000
0000
0000
0000
0000
8080
8080
8000
0000
0000
0000
ENDCHAR
STARTCHAR ae
ENCODING 230
SWIDTH 720 0
DWIDTH 9 0
BBX 6 8 1 -2
ATTRIBUTES 02bb
BITMAP
00
44
24
28
10
30
50
48
ENDCHAR
STARTCHAR ccedilla
ENCODING 231
SWIDTH 880 0
DWIDTH 11 0
BBX 9 10 1 -2
ATTRIBUTES 038e
BITMAP
8800
0000
0080
8080
0080
0080
0080
0000
0000
0000
ENDCHAR
STARTCHAR egrave
ENCODING 232
SWIDTH 960 0
DWIDTH 12 0
BBX 10 7 1 0
ATTRIBUTES 03e4
BITMAP
0000
8040
4040
4080
4080
4080
8040
ENDCHAR
STARTCHAR eacute
ENCODING 233
SWIDTH 560 0
DWIDTH 7 0
BBX 5 7 1 0
ATTRIBUTES 0217
BITMAP
00
78
40
40
70
c0
80
ENDCHAR
STARTCHAR ecircumflex
ENCODING 234
SWIDTH 720 0
DWIDTH 9 0
BBX 7 10 1 0
ATTRIBUTES 02cc
BITMAP
70
18
24
24
44
44
7e
0c
88
50
ENDCHAR
STARTCHAR ediaeresis
ENCODING 235
SWIDTH 960 0
DWIDTH 12 0
BBX 12 6 0 0
ATTRIBUTES 03e2
BITMAP
20f0
f020
6040
2040
2040
4030
ENDCHAR
STARTCHAR igrave
ENCODING 236
SWIDTH 640 0
DWIDTH 8 0
BBX 6 9 1 -2
ATTRIBUTES 029a
BITMAP
80
38
64
44
c4
c8
d8
b0
80
ENDCHAR
STARTCHAR iacute
ENCODING 237
SWIDTH 640 0
DWIDTH 8 0
BBX 6 10 1 -3
ATTRIBUTES 027c
BITMAP
78
1c
20
40
80
80
80
78
08
18
ENDCHAR
STARTCHAR icircumflex
ENCODING 238
SWIDTH 960 0
DWIDTH 12 0
BBX 9 9 1 -2
ATTRIBUTES 039f
BITMAP
6000
0000
8080
8080
8080
0000
0000
0000
0000
ENDCHAR
STARTCHAR idiaeresis
ENCODING 239
SWIDTH 640 0
DWIDTH 8 0
BBX 6 9 1 0
ATTRIBUTES 028e
BITMAP
00
70
88
04
3c
44
44
88
88
ENDCHAR
STARTCHAR eth
ENCODING 240
SWIDTH 560 0
DWIDTH 7 0
BBX 7 11 0 0
ATTRIBUTES 024d
BITMAP
70
06
0a
0a
9c
70
20
20
20
28
28
ENDCHAR
STARTCHAR ntilde
ENCODING 241
SWIDTH 320 0
DWIDTH 4 0
BBX 2 6 1 0
ATTRIBUTES 0151
BITMAP
00
40
40
40
80
80
ENDCHAR
STARTCHAR ograve
ENCODING 242
SWIDTH 400 0
DWIDTH 5 0
BBX 5 9 -1 -3
ATTRIBUTES 0187
BITMAP
80
08
08
18
10
10
10
10
a0
ENDCHAR
STARTCHAR oacute
ENCODING 243
SWIDTH 720 0
DWIDTH 9 0
BBX 8 10 0 -3
ATTRIBUTES 02d5
BITMAP
c0
20
4f
51
61
41
62
6c
a0
a0
ENDCHAR
STARTCHAR ocircumflex
ENCODING 244
SWIDTH 640 0
DWIDTH 8 0
BBX 5 9 2 0
ATTRIBUTES 0298
BITMAP
40
00
00
00
00
78
00
00
00
ENDCHAR
STARTCHAR otilde
ENCODING 245
SWIDTH 800 0
DWIDTH 10 0
BBX 7 9 1 0
ATTRIBUTES 0300
BITMAP
7c
f0
0c
06
02
82
82
86
8c
ENDCHAR
STARTCHAR odiaeresis
ENCODING 246
SWIDTH 640 0
DWIDTH 8 0
BBX 6 10 1 -1
ATTRIBUTES 0274
BITMAP
f8
3c
44
40
40
30
40
c0
c4
44
ENDCHAR
STARTCHAR division
ENCODING 247
SWIDTH 880 0
DWIDTH 11 0
BBX 9 9 1 0
ATTRIBUTES 036c
BITMAP
3880
8080
8000
0000
0080
0080
0080
0000
0000
ENDCHAR
STARTCHAR oslash
ENCODING 248
SWIDTH 800 0
DWIDTH 10 0
BBX 9 11 0 -4
ATTRIBUTES 0304
BITMAP
0000
0000
0000
0000
0000
8000
0000
0000
0000
0080
0080
ENDCHAR
STARTCHAR ugrave
ENCODING 249
SWIDTH 800 0
DWIDTH 10 0
BBX 10 11 0 0
ATTRIBUTES 032f
BITMAP
0000
0000
0000
0080
0040
0000
0000
0000
0000
8040
8040
ENDCHAR
STARTCHAR uacute
ENCODING 250
SWIDTH 640 0
DWIDTH 8 0
BBX 8 11 0 -4
ATTRIBUTES 02a5
BITMAP
00
20
5c
08
10
22
7c
24
44
48
98
ENDCHAR
STARTCHAR ucircumflex
ENCODING 251
SWIDTH 560 0
DWIDTH 7 0
BBX 7 9 0 0
ATTRIBUTES 0253
BITMAP
f0
c0
28
30
10
78
48
4c
84
ENDCHAR
STARTCHAR udiaeresis
ENCODING 252
SWIDTH 560 0
DWIDTH 7 0
BBX 8 11 0 0
ATTRIBUTES 024d
BITMAP
86
06
0a
7f
9c
70
20
20
20
28
28
ENDCHAR
STARTCHAR yacute
ENCODING 253
SWIDTH 640 0
DWIDTH 8 0
BBX 7 7 1 0
ATTRIBUTES 029b
BITMAP
30
f8
04
04
04
04
04
ENDCHAR
STARTCHAR thorn
ENCODING 254
SWIDTH 480 0
DWIDTH 6 0
BBX 4 7 1 0
ATTRIBUTES 01ce
BITMAP
f0
c0
20
20
20
30
30
ENDCHAR
STARTCHAR ydiaeresis
ENCODING 255
SWIDTH 640 0
DWIDTH 8 0
BBX 7 8 0 0
ATTRIBUTES 025e
BITMAP
d0
40
7e
04
04
04
04
04
ENDCHAR
ENDFONT
